Coordinates
version=1
nRows=10
nColumns=40
inDegrees=yes

Units are S.I. units (second, meters, Newtons, ...)
If the header above contains a line with 'inDegrees', this indicates whether rotational values are in degrees (yes) or radians (no).

endheader
time	pelvis_tilt	pelvis_list	pelvis_rotation	pelvis_tx	pelvis_ty	pelvis_tz	hip_flexion_r	hip_adduction_r	hip_rotation_r	knee_angle_r	knee_angle_r_beta	ankle_angle_r	subtalar_angle_r	mtp_angle_r	hip_flexion_l	hip_adduction_l	hip_rotation_l	knee_angle_l	knee_angle_l_beta	ankle_angle_l	subtalar_angle_l	mtp_angle_l	lumbar_extension	lumbar_bending	lumbar_rotation	arm_flex_r	arm_add_r	arm_rot_r	elbow_flex_r	pro_sup_r	wrist_flex_r	wrist_dev_r	arm_flex_l	arm_add_l	arm_rot_l	elbow_flex_l	pro_sup_l	wrist_flex_l	wrist_dev_l
      0.49000000	      2.22088455	     -0.15441325	     -1.50547861	      0.24983665	      0.94782237	     -0.21303131	     -3.89364836	      6.11088683	    -14.10673928	      5.36059997	      0.09356012	      2.88552940	      0.00000000	      0.00000000	     18.10580932	     -3.83445739	     -3.41734148	     36.76330969	      0.64164080	     12.27706855	      0.00000000	      0.00000000	    -10.95351808	     -0.68845280	     10.22015180	     -1.21736895	      1.58121054	    -10.15583279	     44.43727139	     84.40303254	      8.35177861	      9.19719888	     -8.20865650	     -0.25572499	     -5.75361046	     40.85523973	     87.75267260	     -1.77293971	     19.10868700
      0.50000000	      2.45476520	      0.07538574	     -2.09516741	      0.25682445	      0.94773808	     -0.21159425	     -4.67900259	      5.88300260	    -13.52385250	      5.25578652	      0.09173078	      3.35091073	      0.00000000	      0.00000000	     17.71576887	     -3.67662589	     -5.14714950	     33.82591029	      0.59037351	     11.56015464	      0.00000000	      0.00000000	    -11.16936538	     -1.13095221	     11.05000918	     -0.98265841	      1.44218533	     -9.87645686	     44.75980478	     84.24234582	      8.38830141	      9.13739251	     -8.55515566	     -0.04665733	     -6.52419150	     41.01136039	     87.76065456	     -1.79027231	     18.94756402
      0.51000000	      2.69458425	      0.23679804	     -2.54759923	      0.26381413	      0.94762729	     -0.21049737	     -5.45735382	      5.70527715	    -13.15487481	      5.14950251	      0.08987577	      3.60660126	      0.00000000	      0.00000000	     17.31739264	     -3.46457387	     -6.69909195	     30.90380743	      0.53937319	     10.89468636	      0.00000000	      0.00000000	    -11.39313966	     -1.46270152	     11.74205070	     -0.76263633	      1.27733237	     -9.58867405	     45.10818293	     84.10297886	      8.39512409	      9.08583381	     -8.86566374	      0.23438164	     -7.37676105	     41.09535545	     87.76378999	     -1.82031145	     18.83874109
      0.52000000	      2.85711205	      0.42929367	     -2.96459687	      0.27087187	      0.94736900	     -0.20955145	     -6.13008239	      5.47837460	    -12.82931296	      5.10348696	      0.08907265	      3.93057255	      0.00000000	      0.00000000	     17.00912331	     -3.15429213	     -8.23385450	     28.04349661	      0.48945135	     10.12717383	      0.00000000	      0.00000000	    -11.49958068	     -1.81081325	     12.38247632	     -0.57863541	      1.13591339	     -9.34163534	     45.42344000	     83.98400959	      8.38741275	      9.03841859	     -9.17028852	      0.53231811	     -8.24363706	     41.14630335	     87.76188958	     -1.85725500	     18.74571033
      0.53000000	      2.71104218	      0.50859621	     -3.08539022	      0.27794046	      0.94664355	     -0.20904876	     -6.45692627	      5.39934497	    -12.83575593	      5.07283753	      0.08853772	      4.19428292	      0.00000000	      0.00000000	     17.10448901	     -2.81672037	     -9.25254603	     25.33644280	      0.44220435	      9.35745415	      0.00000000	      0.00000000	    -11.25495385	     -1.94898414	     12.84934944	     -0.51128402	      1.01901413	     -9.24387767	     45.76419333	     83.93668746	      8.36769118	      9.01645703	     -9.41544509	      0.83987329	     -8.99321712	     41.03207469	     87.71008074	     -1.95044050	     18.69335660
      0.54000000	      2.80417591	      0.77509159	     -3.49367552	      0.28496300	      0.94618279	     -0.20828949	     -7.00388591	      5.06666378	    -12.56770273	      5.10455942	      0.08909137	      4.67378962	      0.00000000	      0.00000000	     16.85909499	     -2.31326621	    -10.63606574	     22.58158943	      0.39412309	      8.42023691	      0.00000000	      0.00000000	    -11.29602588	     -2.35265323	     13.41194491	     -0.33256630	      0.92699781	     -9.09243379	     46.09938333	     83.82719162	      8.36896436	      8.95225193	     -9.68758565	      1.16838384	     -9.83880636	     41.01570176	     87.72173642	     -2.01941808	     18.55418309
      0.55000000	      3.06181718	      0.96121613	     -3.82389708	      0.29198302	      0.94589144	     -0.20774082	     -7.72140470	      4.79579628	    -12.32563488	      5.15567497	      0.08998350	      5.04159975	      0.00000000	      0.00000000	     16.45907269	     -1.80874563	    -11.84242244	     19.94690843	      0.34813923	      7.58564818	      0.00000000	      0.00000000	    -11.54343020	     -2.67960208	     13.91175708	     -0.14008034	      0.79927813	     -8.87032371	     46.38216279	     83.69264650	      8.35431701	      8.85536040	     -9.95134692	      1.52390077	    -10.68415629	     41.14132176	     87.73555125	     -2.06220089	     18.37064205
      0.56000000	      2.88304331	      0.96709090	     -3.87165347	      0.29889686	      0.94498662	     -0.20763567	     -7.95817974	      4.76585467	    -12.39741869	      5.22300716	      0.09115867	      5.26700465	      0.00000000	      0.00000000	     16.61024951	     -1.38477530	    -12.16290760	     17.52426730	      0.30585616	      6.87088538	      0.00000000	      0.00000000	    -11.29952173	     -2.69782931	     14.25504264	     -0.07162841	      0.67948223	     -8.81518499	     46.70022921	     83.65569141	      8.32404911	      8.82146326	    -10.12595247	      1.88412324	    -11.36201775	     40.98949381	     87.65882383	     -2.16410324	     18.30884804
      0.57000000	      2.91818315	      1.21593414	     -4.02658437	      0.30584666	      0.94431938	     -0.20741142	     -8.38914849	      4.44270704	    -12.34730786	      5.36216060	      0.09358736	      5.78620377	      0.00000000	      0.00000000	     16.48951569	     -0.71629143	    -12.70866485	     15.12139334	      0.26391810	      5.94990757	      0.00000000	      0.00000000	    -11.31439288	     -3.02264427	     14.52105709	      0.08706000	      0.64538777	     -8.75874320	     47.00967411	     83.52815698	      8.29204870	      8.72575519	    -10.31480259	      2.21967238	    -12.08013779	     40.92429194	     87.69725636	     -2.23688853	     18.12458310
      0.58000000	      3.04461403	      1.35887921	     -4.19487620	      0.31274517	      0.94374370	     -0.20715542	     -8.90892494	      4.22409579	    -12.38483520	      5.50718121	      0.09611844	      6.12691892	      0.00000000	      0.00000000	     16.25011237	     -0.14433926	    -12.88862295	     12.84222904	      0.22413918	      5.21008315	      0.00000000	      0.00000000	    -11.46765581	     -3.26405629	     14.74983936	      0.30565822	      0.58877907	     -8.60088260	     47.25050499	     83.39082689	      8.24100178	      8.59432667	    -10.50870391	      2.57320468	    -12.80604632	     40.92277674	     87.71364602	     -2.31536636	     17.85736796
